<svg width="193" height="57" viewBox="0 0 193 57" fill="none" xmlns="http://www.w3.org/2000/svg">
<path d="M3.5625 0C1.59499 0 0 1.59499 0 3.5625V39.1875C0 49.0251 7.97493 57 17.8125 57H51.6562C54.6075 57 57 54.6075 57 51.6562V31.1719C57 29.2044 55.405 27.6094 53.4375 27.6094H27.6094L42.75 42.75H18.7031C16.2437 42.75 14.25 40.7563 14.25 38.2969V14.25H51.6562V3.5625C51.6562 1.59499 50.0613 0 48.0938 0H3.5625Z" fill="#3499B9"/>
<path d="M79.7096 25.8865C77.9591 25.8865 76.3667 25.5072 74.9322 24.7486C73.5221 23.9663 72.3916 22.8403 71.5407 21.3706C70.7141 19.8771 70.3008 18.0636 70.3008 15.9301V9.95633C70.3008 6.75608 71.2246 4.30256 73.0724 2.59576C74.9201 0.865253 77.4242 0 80.5848 0C83.7211 0 86.1401 0.817842 87.842 2.45352C89.5681 4.0655 90.4312 6.25827 90.4312 9.03182V9.17405H85.6904V8.88958C85.6904 8.01248 85.4958 7.21834 85.1069 6.50717C84.7422 5.79601 84.183 5.23893 83.4293 4.83593C82.6756 4.40923 81.7275 4.19588 80.5848 4.19588C78.883 4.19588 77.5458 4.70555 76.5733 5.72489C75.6008 6.74423 75.1146 8.131 75.1146 9.88522V16.0012C75.1146 17.7318 75.6008 19.1304 76.5733 20.1971C77.5458 21.2402 78.9073 21.7617 80.6577 21.7617C82.4082 21.7617 83.6846 21.3113 84.4869 20.4105C85.2892 19.5097 85.6904 18.3718 85.6904 16.9969V16.6413H79.6366V12.6588H90.4312V25.3886H85.9821V23.0062H85.3257C85.1555 23.4092 84.8759 23.8359 84.4869 24.2863C84.1222 24.7367 83.563 25.116 82.8094 25.4242C82.0557 25.7324 81.0224 25.8865 79.7096 25.8865Z" fill="white"/>
<path d="M94.8114 25.3886V7.75172H99.3334V9.74298H99.9899C100.257 9.03182 100.695 8.51029 101.303 8.17842C101.935 7.84654 102.664 7.6806 103.491 7.6806H105.679V11.6631H103.418C102.251 11.6631 101.291 11.9713 100.537 12.5876C99.7832 13.1803 99.4064 14.1048 99.4064 15.3612V25.3886H94.8114Z" fill="white"/>
<path d="M116.871 25.8865C115.072 25.8865 113.455 25.5309 112.021 24.8197C110.587 24.1085 109.456 23.0774 108.629 21.7261C107.803 20.3749 107.389 18.7511 107.389 16.8546V16.2857C107.389 14.3893 107.803 12.7654 108.629 11.4142C109.456 10.063 110.587 9.03182 112.021 8.32065C113.455 7.60948 115.072 7.2539 116.871 7.2539C118.67 7.2539 120.287 7.60948 121.721 8.32065C123.156 9.03182 124.286 10.063 125.113 11.4142C125.94 12.7654 126.353 14.3893 126.353 16.2857V16.8546C126.353 18.7511 125.94 20.3749 125.113 21.7261C124.286 23.0774 123.156 24.1085 121.721 24.8197C120.287 25.5309 118.67 25.8865 116.871 25.8865ZM116.871 21.9039C118.281 21.9039 119.448 21.4654 120.372 20.5883C121.296 19.6875 121.758 18.4074 121.758 16.748V16.3924C121.758 14.733 121.296 13.4648 120.372 12.5876C119.473 11.6868 118.306 11.2364 116.871 11.2364C115.461 11.2364 114.294 11.6868 113.37 12.5876C112.446 13.4648 111.984 14.733 111.984 16.3924V16.748C111.984 18.4074 112.446 19.6875 113.37 20.5883C114.294 21.4654 115.461 21.9039 116.871 21.9039Z" fill="white"/>
<path d="M131.617 25.3886L129.064 7.75172H133.623L135.228 22.3662H135.884L138.218 7.75172H145.584L147.918 22.3662H148.575L150.179 7.75172H154.738L152.185 25.3886H144.563L142.229 10.7742H141.573L139.239 25.3886H131.617Z" fill="white"/>
<path d="M165.32 25.3886C164.129 25.3886 163.157 25.0331 162.403 24.3219C161.673 23.587 161.309 22.6151 161.309 21.4061V11.4498H156.787V7.75172H161.309V2.27573H165.904V7.75172H170.863V11.4498H165.904V20.6238C165.904 21.335 166.244 21.6906 166.925 21.6906H170.426V25.3886H165.32Z" fill="white"/>
<path d="M174.658 25.3886V0.497817H179.253V9.92077H179.91C180.104 9.54148 180.408 9.1622 180.821 8.78291C181.235 8.40362 181.782 8.09545 182.462 7.85839C183.167 7.59763 184.055 7.46725 185.125 7.46725C186.535 7.46725 187.762 7.78728 188.808 8.42732C189.878 9.04367 190.704 9.90892 191.288 11.0231C191.871 12.1135 192.163 13.3936 192.163 14.8634V25.3886H187.568V15.219C187.568 13.8915 187.227 12.8958 186.547 12.2321C185.89 11.5683 184.942 11.2364 183.702 11.2364C182.292 11.2364 181.198 11.6987 180.42 12.6232C179.642 13.524 179.253 14.7923 179.253 16.4279V25.3886H174.658Z" fill="white"/>
<path d="M70.4284 56.5022V31.6114H86.4744V35.8784H75.2422V41.8877H85.5992V46.1547H75.2422V56.5022H70.4284Z" fill="white"/>
<path d="M95.0214 57C93.7328 57 92.578 56.7866 91.5569 56.3599C90.5358 55.9095 89.7213 55.2695 89.1135 54.4398C88.53 53.5864 88.2383 52.5552 88.2383 51.3462C88.2383 50.1372 88.53 49.1298 89.1135 48.3238C89.7213 47.4941 90.5479 46.8777 91.5933 46.4747C92.6631 46.048 93.8787 45.8347 95.2402 45.8347H100.2V44.8391C100.2 44.0094 99.9324 43.3337 99.3975 42.8122C98.8627 42.267 98.0117 41.9944 96.8448 41.9944C95.7021 41.9944 94.8512 42.2551 94.292 42.7767C93.7328 43.2745 93.3681 43.9264 93.1979 44.7324L88.9676 43.3456C89.2594 42.4448 89.7213 41.6269 90.3534 40.8921C91.0099 40.1335 91.8729 39.529 92.9427 39.0786C94.0367 38.6045 95.3617 38.3674 96.9177 38.3674C99.3003 38.3674 101.184 38.9482 102.57 40.1098C103.956 41.2714 104.649 42.9545 104.649 45.1591V51.7374C104.649 52.4485 104.989 52.8041 105.67 52.8041H107.129V56.5022H104.065C103.166 56.5022 102.424 56.2888 101.841 55.8621C101.257 55.4354 100.966 54.8665 100.966 54.1553V54.1198H100.273C100.176 54.4042 99.9567 54.7835 99.6163 55.2576C99.276 55.708 98.7411 56.111 98.0117 56.4666C97.2824 56.8222 96.2856 57 95.0214 57ZM95.8237 53.373C97.1122 53.373 98.1576 53.0293 98.9599 52.3419C99.7865 51.6307 100.2 50.6943 100.2 49.5327V49.1772H95.5684C94.7175 49.1772 94.0489 49.355 93.5626 49.7105C93.0764 50.0661 92.8333 50.5639 92.8333 51.204C92.8333 51.844 93.0885 52.3656 93.5991 52.7686C94.1096 53.1716 94.8512 53.373 95.8237 53.373Z" fill="white"/>
<path d="M118.265 57C116.514 57 114.922 56.6444 113.487 55.9332C112.077 55.2221 110.959 54.1909 110.132 52.8397C109.306 51.4885 108.892 49.8528 108.892 47.9326V47.4348C108.892 45.5147 109.306 43.879 110.132 42.5278C110.959 41.1765 112.077 40.1454 113.487 39.4342C114.922 38.723 116.514 38.3674 118.265 38.3674C119.991 38.3674 121.474 38.6638 122.714 39.2564C123.954 39.849 124.951 40.6669 125.704 41.7099C126.482 42.7293 126.993 43.8908 127.236 45.1946L122.787 46.1192C122.689 45.408 122.471 44.7679 122.13 44.199C121.79 43.6301 121.304 43.1797 120.672 42.8478C120.064 42.5159 119.298 42.35 118.374 42.35C117.45 42.35 116.611 42.5515 115.858 42.9545C115.128 43.3337 114.545 43.9145 114.107 44.6968C113.694 45.4554 113.487 46.3918 113.487 47.5059V47.8615C113.487 48.9757 113.694 49.9239 114.107 50.7062C114.545 51.4648 115.128 52.0455 115.858 52.4485C116.611 52.8278 117.45 53.0175 118.374 53.0175C119.76 53.0175 120.805 52.6737 121.51 51.9863C122.24 51.2751 122.702 50.3506 122.896 49.2127L127.345 50.2439C127.029 51.5003 126.482 52.65 125.704 53.6931C124.951 54.7124 123.954 55.5184 122.714 56.111C121.474 56.7037 119.991 57 118.265 57Z" fill="white"/>
<path d="M137.13 56.5022C135.939 56.5022 134.966 56.1466 134.213 55.4354C133.483 54.7006 133.119 53.7286 133.119 52.5196V42.5633H128.597V38.8653H133.119V33.3893H137.714V38.8653H142.673V42.5633H137.714V51.7374C137.714 52.4485 138.054 52.8041 138.735 52.8041H142.236V56.5022H137.13Z" fill="white"/>
<path d="M154.433 57C152.634 57 151.018 56.6444 149.583 55.9332C148.149 55.2221 147.018 54.1909 146.192 52.8397C145.365 51.4885 144.952 49.8646 144.952 47.9682V47.3992C144.952 45.5028 145.365 43.879 146.192 42.5278C147.018 41.1765 148.149 40.1454 149.583 39.4342C151.018 38.723 152.634 38.3674 154.433 38.3674C156.233 38.3674 157.849 38.723 159.284 39.4342C160.718 40.1454 161.849 41.1765 162.675 42.5278C163.502 43.879 163.915 45.5028 163.915 47.3992V47.9682C163.915 49.8646 163.502 51.4885 162.675 52.8397C161.849 54.1909 160.718 55.2221 159.284 55.9332C157.849 56.6444 156.233 57 154.433 57ZM154.433 53.0175C155.844 53.0175 157.01 52.5789 157.934 51.7018C158.858 50.801 159.32 49.5209 159.32 47.8615V47.5059C159.32 45.8465 158.858 44.5783 157.934 43.7012C157.035 42.8004 155.868 42.35 154.433 42.35C153.023 42.35 151.856 42.8004 150.932 43.7012C150.009 44.5783 149.547 45.8465 149.547 47.5059V47.8615C149.547 49.5209 150.009 50.801 150.932 51.7018C151.856 52.5789 153.023 53.0175 154.433 53.0175Z" fill="white"/>
<path d="M167.792 56.5022V38.8653H172.314V40.8565H172.97C173.238 40.1453 173.675 39.6238 174.283 39.292C174.915 38.9601 175.645 38.7941 176.471 38.7941H178.659V42.7767H176.398C175.231 42.7767 174.271 43.0848 173.517 43.7012C172.764 44.2938 172.387 45.2183 172.387 46.4747V56.5022H167.792Z" fill="white"/>
</svg>
